<?xml version="1.0" encoding="utf-8"?>
<!-- Generator: Adobe Illustrator 25.4.1, SVG Export Plug-In . SVG Version: 6.00 Build 0)  -->
<svg version="1.1" id="Livello_1" xmlns="http://www.w3.org/2000/svg" xmlns:xlink="http://www.w3.org/1999/xlink" x="0px" y="0px"
	 viewBox="0 0 265.3 46.3" style="enable-background:new 0 0 265.3 46.3;" xml:space="preserve">
<style type="text/css">
	.st0{fill:#00D672;}
	.st1{fill:#FFFFFF;}
</style>
<g id="Livello_2_00000042702138782023179560000014313139776061661595_">
	<g id="Livello_1-2">
		<path class="st0" d="M23.1,46.3L23.1,46.3C10.4,46.3,0,35.9,0,23.1C0,10.4,10.4,0,23.1,0c12.8,0,23.1,10.4,23.1,23.1
			S35.9,46.3,23.1,46.3L23.1,46.3"/>
		<polygon class="st1" points="61.1,37.7 64.4,30.2 57.8,15.3 62.5,15.3 66.8,25.5 70.9,15.3 75.7,15.3 65.8,37.7 		"/>
		<path class="st1" d="M74.5,23.2c0-4.6,3.6-8.3,8.2-8.4s8.3,3.6,8.4,8.2s-3.6,8.3-8.2,8.4h-0.1C78.3,31.5,74.5,27.8,74.5,23.2
			C74.5,23.3,74.5,23.2,74.5,23.2 M86.7,23.2c0.1-2.2-1.6-4-3.7-4.1c-2.2-0.1-4,1.6-4.1,3.7c0,0.1,0,0.3,0,0.4
			c-0.1,2.2,1.6,4,3.7,4.1c2.2,0.1,4-1.6,4.1-3.7C86.7,23.5,86.7,23.4,86.7,23.2"/>
		<path class="st1" d="M92.3,24.5v-9.1h4.3v8.4c0,2.4,0.8,3.8,2.7,3.8s3.2-1.4,3.2-4.5v-7.7h4.3v15.8h-4.3v-1.8
			c-1,1.4-2.6,2.2-4.3,2.1C94.4,31.4,92.3,28.6,92.3,24.5"/>
		<path class="st1" d="M109.2,15.3h4.3v1.8c1-1.4,2.7-2.2,4.5-2.1c3.8,0,6.1,2.8,6.1,6.9v9.2h-4.3v-8.5c0-2.3-1-3.7-2.8-3.7
			c-2,0-3.5,1.5-3.5,4.5v7.7h-4.3L109.2,15.3z"/>
		<path class="st1" d="M126,32.1h4.2c0.5,1.5,2,2.5,3.6,2.3c1.9,0.1,3.5-1.4,3.6-3.3c0-0.1,0-0.3,0-0.4v-1.9
			c-1.1,1.4-2.8,2.1-4.6,2.1c-4.2-0.1-7.5-3.7-7.4-7.9c-0.2-4.2,3.1-7.8,7.3-8h0.1c1.8-0.1,3.5,0.7,4.6,2.1v-1.8h4.3v14.8
			c0,5.7-3.9,7.9-8,7.9C129.2,38,126.4,35.4,126,32.1 M137.7,23c0-2.2-1.8-4-4-4s-4,1.8-4,4s1.8,4,4,4s4-1.7,4-3.8
			C137.7,23.1,137.7,23.1,137.7,23"/>
		<path class="st1" d="M148.8,37.7V15.3h4.3v1.8c1.1-1.4,2.8-2.2,4.6-2.1c4.2,0,7.4,3.8,7.4,8.2s-3.2,8.2-7.4,8.2
			c-1.8,0-3.5-0.7-4.6-2.1v8.3L148.8,37.7L148.8,37.7z M160.7,23.2c0-2.5-1.6-4.3-4-4.3s-4,1.8-4,4.3s1.6,4.3,4,4.3
			S160.7,25.7,160.7,23.2"/>
		<rect x="166.5" y="7.5" class="st1" width="4.3" height="23.6"/>
		<path class="st1" d="M172.2,23.2c0-4.4,3.2-8.2,7.4-8.2c1.8,0,3.4,0.7,4.5,2.1v-1.8h4.3v15.8h-4.3v-1.8c-1.1,1.4-2.8,2.1-4.5,2.1
			C175.4,31.4,172.2,27.7,172.2,23.2 M184.5,23.2c0-2.5-1.6-4.3-4-4.3s-4,1.8-4,4.3s1.6,4.3,4,4.3S184.5,25.7,184.5,23.2"/>
		<path class="st1" d="M192.6,25.6v-6.5h-3.2v-3.8h3.2V11h4.3v4.4h4.4v3.8h-4.4v5.6c0,1.9,0.8,2.7,2.7,2.7c0.6,0,1.2-0.1,1.8-0.3V31
			c-0.9,0.3-1.8,0.4-2.7,0.3C195.2,31.3,192.6,29.5,192.6,25.6"/>
		<path class="st1" d="M204.3,19.1h-3.2v-3.8h3.2v-2c-0.2-3.1,2.2-5.8,5.3-6c0.2,0,0.4,0,0.7,0c0.9,0,1.9,0.1,2.7,0.3v3.8
			c-0.6-0.2-1.2-0.3-1.8-0.3c-1.9,0-2.7,0.8-2.7,2.7v1.5h4.4v3.8h-4.4v12h-4.3L204.3,19.1z"/>
		<path class="st1" d="M212.4,23.2c0-4.6,3.6-8.3,8.2-8.4c4.6,0,8.3,3.6,8.4,8.2s-3.6,8.3-8.2,8.4c0,0,0,0-0.1,0
			C216.2,31.5,212.5,27.8,212.4,23.2C212.4,23.3,212.4,23.2,212.4,23.2 M224.6,23.2c0.2-2.2-1.5-4-3.6-4.2c-2.2-0.2-4,1.5-4.2,3.6
			c0,0.2,0,0.4,0,0.6c-0.2,2.2,1.5,4,3.6,4.2c2.2,0.2,4-1.5,4.2-3.6C224.6,23.6,224.6,23.4,224.6,23.2"/>
		<path class="st1" d="M230.4,15.3h4.3v2.5c0.6-1.6,2.2-2.7,3.9-2.7c0.5,0,1,0.1,1.4,0.2v4.4c-0.6-0.2-1.3-0.3-2-0.3
			c-2,0-3.4,1.6-3.4,4.2v7.5h-4.3L230.4,15.3z"/>
		<path class="st1" d="M260.9,22.7c0-2.4-0.7-3.8-2.5-3.8s-3.1,1.4-3.1,4.3v7.9H251v-8.4c0-2.4-0.7-3.8-2.5-3.8
			c-1.9,0-3.1,1.5-3.1,4.5v7.7h-4.3V15.3h4.3v1.8c0.9-1.4,2.5-2.2,4.2-2.1c2.1-0.1,4,1.1,4.9,2.9c1-1.8,2.9-2.9,4.9-2.9
			c3.8,0,5.9,2.7,5.9,7v9.1H261L260.9,22.7z"/>
		<polygon class="st1" points="31.3,15.1 23.2,23.2 18.2,18.2 15,21.5 23.2,29.7 26.4,26.4 28,24.8 29.6,23.2 31.3,21.6 34.5,18.3 
					"/>
		<rect x="16" y="29" transform="matrix(0.7071 -0.7071 0.7071 0.7071 -16.7745 22.1015)" class="st1" width="4.6" height="4.6"/>
	</g>
</g>
</svg>
